<svg width="172" height="162" viewBox="0 0 172 162" fill="none" xmlns="http://www.w3.org/2000/svg">
<path d="M108.869 80.5778L106.26 94.5843L93.8342 161.166L71.4502 156.987L85.8026 80.0729L86.4851 76.4077L108.869 80.5778Z" fill="#0C1E34"/>
<path d="M155.54 88.3242L155.54 88.3242C155.538 88.3362 155.534 88.3479 155.53 88.3592C155.525 88.3709 155.52 88.3822 155.513 88.3928C155.499 88.4136 155.482 88.4315 155.461 88.4456L155.885 89.0643L155.461 88.4456C155.441 88.4596 155.417 88.4695 155.393 88.4746C155.369 88.4798 155.344 88.4801 155.319 88.4755L155.319 88.4754L47.6189 68.3883L60.107 1.43193L141.713 16.6524L141.85 15.9151L141.713 16.6524C156.253 19.3638 165.87 32.9419 163.258 46.9445L155.54 88.3242Z" fill="#97D6FF" stroke="black" stroke-width="1.5"/>
<path d="M82.668 33.1955L75.01 74.2541L18.0908 63.6381L25.7487 22.5795C28.5682 7.46236 43.5961 -2.41636 59.3136 0.515073C75.0311 3.4465 85.4875 18.078 82.668 33.1955Z" fill="#0C1E34"/>
<path d="M170.291 52.3855L169.043 59.077L116.551 49.2867L116.265 49.2333L116.077 49.456C115.257 50.429 114.194 51.1674 112.996 51.5962C111.799 52.025 110.509 52.1289 109.258 51.8975C105.339 51.1664 102.746 47.3546 103.486 43.3885C104.226 39.4222 108.019 36.8008 111.937 37.5319C113.187 37.7668 114.353 38.3286 115.316 39.1602C116.278 39.9918 117.004 41.0635 117.418 42.2664L117.513 42.5418L117.799 42.5952L170.291 52.3855Z" fill="#1A4071" stroke="black"/>
<path d="M80.7798 33.95L73.3187 73.9533L19.6987 63.9526L27.1604 23.9491C29.9073 9.22067 44.138 -0.481 58.9446 2.28063C73.7512 5.04226 83.5268 19.2213 80.7798 33.95Z" fill="#1A4071"/>
<path d="M114.073 44.6088C114.073 46.4885 112.549 48.0123 110.669 48.0123C108.789 48.0123 107.266 46.4885 107.266 44.6088C107.266 42.7291 108.789 41.2053 110.669 41.2053C112.549 41.2053 114.073 42.7291 114.073 44.6088Z" fill="white" stroke="black"/>
<path d="M171.486 51.9584L166.806 77.052C166.786 77.1601 166.724 77.2557 166.633 77.3179C166.542 77.38 166.431 77.4036 166.323 77.3835L154.02 75.0888C153.998 75.0848 153.979 75.0725 153.967 75.0546C153.955 75.0368 153.95 75.0147 153.954 74.9934L158.696 49.5727C158.7 49.5514 158.712 49.5325 158.73 49.5202C158.748 49.508 158.77 49.5033 158.791 49.5073L171.421 51.8629C171.442 51.8669 171.461 51.8792 171.474 51.8971C171.486 51.915 171.49 51.937 171.486 51.9584Z" fill="#0C1E34"/>
<path d="M37.1745 49.1758L36.9045 49.3478L36.9476 49.6649C37.2234 51.694 38.4579 53.8613 39.5759 55.4813C40.1364 56.2935 40.68 56.9856 41.0859 57.4773C35.6078 57.4847 32.5949 54.3018 31.2483 52.316L31.0445 52.0155L30.6956 52.1163C28.8935 52.637 27.0413 52.9657 25.17 53.0969L25.1696 53.0969C12.2986 54.0092 1.33489 45.6112 0.545287 34.4731C-0.244315 23.3351 9.42535 13.4744 22.2964 12.5623C35.1674 11.6501 46.1304 20.0477 46.9198 31.1859C47.4338 38.4366 43.5235 45.1331 37.1745 49.1758Z" fill="white" stroke="black"/>
<path d="M18.2821 64.5057C18.2921 64.4891 18.3019 64.4728 18.3115 64.457L74.1021 74.8626C73.2169 77.8412 70.2991 87.6118 64.1276 96.689C57.0498 107.099 45.8356 116.369 28.717 113.176L28.7171 113.176L28.7047 113.174C19.2512 111.573 14.013 107.713 11.3536 102.944C8.67509 98.1416 8.52352 92.2618 9.58204 86.4631C10.6387 80.6747 12.8835 75.0659 14.8753 70.8903C15.8696 68.8059 16.7972 67.0861 17.4755 65.8887C17.8145 65.2902 18.091 64.8226 18.2821 64.5057Z" fill="#97D6FF" stroke="black" stroke-width="1.5"/>
<path d="M23.7323 36.7654C25.5288 36.7654 26.9851 35.3091 26.9851 33.5126C26.9851 31.7161 25.5288 30.2598 23.7323 30.2598C21.9358 30.2598 20.4795 31.7161 20.4795 33.5126C20.4795 35.3091 21.9358 36.7654 23.7323 36.7654Z" fill="#0C1E34"/>
<path d="M9.16991 35.3469C10.9772 35.3469 12.4423 33.8817 12.4423 32.0744C12.4423 30.2671 10.9772 28.802 9.16991 28.802C7.36259 28.802 5.89746 30.2671 5.89746 32.0744C5.89746 33.8817 7.36259 35.3469 9.16991 35.3469Z" fill="#0C1E34"/>
<path d="M38.1553 38.1515C39.9626 38.1515 41.4277 36.6864 41.4277 34.8791C41.4277 33.0718 39.9626 31.6067 38.1553 31.6067C36.3479 31.6067 34.8828 33.0718 34.8828 34.8791C34.8828 36.6864 36.3479 38.1515 38.1553 38.1515Z" fill="#0C1E34"/>
<path d="M108.869 80.5778L106.261 94.5843L85.8027 80.0729L86.4852 76.4077L108.869 80.5778Z" fill="#1A4071"/>
</svg>
