<svg width="65" height="59" viewBox="0 0 65 59" fill="none" xmlns="http://www.w3.org/2000/svg">
<g clip-path="url(#clip0_234_11375)">
<path d="M64.7011 29.8065C64.6263 45.7442 51.9908 58.6169 36.4394 58.6169C31.8039 58.6169 28.2899 58.5403 28.2899 58.5403C40.4768 58.4636 51.6918 50.1883 55.2058 37.5455C59.4675 22.2208 50.7946 6.20649 35.7665 1.83895C33.0002 0.996098 30.0843 0.612981 27.2432 0.766227C30.3834 0.612981 33.5235 0.612981 36.589 0.842851C51.5422 2.14545 64.7759 13.8688 64.7011 29.8065Z" fill="#0C1E34"/>
<path d="M27.1678 0.766215C30.0837 0.689591 32.9248 1.07271 35.7659 1.83894C50.7192 6.20647 59.3921 22.1441 55.2052 37.5454C51.6911 50.1883 40.5509 58.4636 28.2893 58.5402C25.5977 58.5402 22.9061 58.1571 20.364 57.4675C5.41076 53.1 -3.26214 37.1623 0.924778 21.761C4.36403 9.27141 15.2052 1.07271 27.1678 0.766215ZM48.2519 35.4766C49.3734 31.4156 49.2986 27.048 48.0276 22.987C46.7566 18.926 44.364 15.4013 41.0743 12.7195C37.7846 10.1143 33.8967 8.50518 29.7098 8.12206C25.5977 7.81557 21.4108 8.73505 17.822 10.8039C14.1584 12.8727 11.2425 16.0143 9.37337 19.7688C7.50422 23.5234 6.75655 27.8143 7.20515 32.0286C7.65375 36.2428 9.37338 40.2273 12.065 43.5221C14.7566 46.7402 18.3453 49.1156 22.308 50.2649C27.6911 51.7974 33.4481 51.1078 38.308 48.3493C43.093 45.5909 46.6818 40.9935 48.2519 35.4766Z" fill="#9FD9FF"/>
<path d="M23.8789 38.9248L31.8042 38.7715C33.0004 38.7715 34.1219 38.2352 34.9444 37.3923C35.7668 36.5494 36.2154 35.3235 36.2154 34.1741C36.2154 32.9481 35.7668 31.7988 34.8696 30.9559C34.0472 30.1131 32.9257 29.6533 31.7294 29.5767L24.0285 29.5001L31.206 29.4235C32.4023 29.4235 33.5238 28.8871 34.3462 28.0443C35.1687 27.2014 35.6173 25.9754 35.6173 24.8261C35.6173 23.6001 35.0939 22.4507 34.2715 21.6079C33.449 20.765 32.2528 20.3053 31.1313 20.3053L23.6546 20.3819V20.5352L23.8042 29.5001L23.8789 38.9248ZM33.7481 8.88841C37.7107 10.0378 41.2995 12.4131 43.9911 15.6313C46.6827 18.8494 48.4023 22.8339 48.8509 27.1248C49.2995 31.3391 48.5518 35.63 46.6827 39.4611C44.8135 43.2157 41.8229 46.3572 38.2341 48.4261C34.5705 50.4949 30.4584 51.4144 26.3462 51.1079C22.2341 50.8014 18.2715 49.1923 14.9817 46.5105C11.692 43.9053 9.2995 40.304 8.02848 36.243C6.75745 32.1819 6.68268 27.8144 7.80418 23.7533C9.2995 18.2365 12.8883 13.6391 17.7481 10.804C22.6827 8.04555 28.4397 7.35594 33.7481 8.88841Z" fill="#4AB5FC"/>
<path d="M36.2145 33.8675C36.2893 34.4805 36.1397 35.0935 35.9902 35.7065C35.7659 36.3195 35.4668 36.8558 35.093 37.3156C34.7192 37.7753 34.1958 38.1584 33.5977 38.3883C32.9995 38.6182 32.4762 38.7714 31.8033 38.7714L23.878 38.9247L23.7285 29.5H23.8033H24.0276L31.7285 29.5766C32.85 29.5766 33.9715 30.0364 34.7939 30.8026C35.6164 31.5688 36.1397 32.7182 36.2145 33.8675Z" fill="#4AB5FC"/>
<path d="M35.6164 24.5195C35.6911 25.1324 35.5416 25.7454 35.3921 26.3584C35.1678 26.9714 34.8687 27.5078 34.4949 27.9675C34.121 28.4273 33.5977 28.8104 33.0743 29.0402C32.5509 29.2701 31.9528 29.4234 31.3547 29.4234L24.1771 29.5H23.9528H23.878L23.7285 20.535V20.3818L31.2052 20.3052C32.3266 20.3052 33.4481 20.7649 34.2706 21.5312C35.0182 22.2974 35.5416 23.3701 35.6164 24.5195Z" fill="#4AB5FC"/>
<path d="M36.3649 58.8469C31.8041 58.8469 28.2901 58.7703 28.2901 58.7703C28.2154 58.7703 28.1406 58.7703 28.0658 58.6936C27.9911 58.617 27.9911 58.5404 27.9911 58.4638C27.9911 58.3871 28.0658 58.3105 28.0658 58.2339C28.1406 58.1573 28.2154 58.1573 28.2901 58.1573C28.2901 58.1573 31.8041 58.2339 36.3649 58.2339H36.4397C43.8415 58.2339 50.9443 55.2456 56.178 49.8819C61.4116 44.5183 64.4023 37.3157 64.4023 29.73C64.4023 22.2975 61.4864 15.3248 56.0285 9.96117C50.8696 4.90402 43.9911 1.76247 36.5892 1.14948C33.449 0.919608 30.3836 0.842985 27.2434 1.07285C27.1686 1.07285 27.1686 1.07285 27.0939 1.07285C27.0939 1.07285 27.0191 1.07285 27.0191 0.996231L26.9443 0.919608V0.842985C26.9443 0.766361 26.9443 0.766361 26.9443 0.689738C26.9443 0.689738 26.9443 0.613114 27.0191 0.613114L27.0939 0.536491H27.1686C30.3088 0.383244 33.449 0.383244 36.5892 0.613114C44.0658 1.30272 51.1686 4.52091 56.4023 9.65467C62.0098 15.0183 65.0004 22.2209 65.0004 29.8066C65.0004 37.5456 61.935 44.978 56.6266 50.4183C51.2434 55.8586 44.0658 58.9235 36.5144 58.9235L36.3649 58.8469Z" fill="#0C1E34"/>
<path d="M27.093 0.996044C27.0182 0.996044 26.9435 0.996044 26.8687 0.91942C26.7939 0.842797 26.7939 0.766174 26.7939 0.68955C26.7939 0.612927 26.7939 0.536303 26.8687 0.45968C26.9435 0.383057 27.0182 0.383057 27.093 0.383057H27.2425C27.3173 0.383057 27.3921 0.383057 27.4668 0.45968C27.5416 0.536303 27.5416 0.612927 27.5416 0.68955C27.5416 0.766174 27.5416 0.842797 27.4668 0.91942C27.3921 0.996044 27.3173 0.996044 27.2425 0.996044H27.093Z" fill="#0C1E34"/>
<path d="M28.0651 58.7701C23.6539 58.7701 19.3175 57.6974 15.3548 55.7052C11.3922 53.713 7.95298 50.8013 5.33615 47.2C2.64456 43.5987 0.850172 39.3844 0.102508 35.0169C-0.645156 30.6493 -0.495623 25.9753 0.700638 21.6078C2.3455 15.6312 5.78475 10.4208 10.5698 6.5896C15.3548 2.75843 21.1866 0.612976 27.1679 0.459729H27.2427C31.7287 0.306483 36.1399 1.30259 40.1773 3.21817C44.2147 5.13376 47.8034 8.04544 50.495 11.7234C53.2614 15.3247 55.1305 19.5389 55.953 24.0597C56.7754 28.5805 56.6259 33.1779 55.4296 37.6221C53.71 43.7519 50.1212 49.1922 45.1119 52.9467C40.252 56.7013 34.3455 58.7701 28.2147 58.7701H28.0651ZM27.2427 0.766223V1.07272C20.5885 1.30259 14.2333 3.90778 9.29877 8.50518C4.36419 13.1026 1.224 19.3857 0.401573 26.1286C-0.420857 32.8714 1.14924 39.7675 4.81279 45.4377C8.47634 51.1078 14.0091 55.2454 20.439 57.161C22.981 57.9273 25.5978 58.2338 28.2894 58.2338C34.2707 58.1571 40.0277 56.1649 44.8128 52.487C49.5231 48.8091 53.0371 43.7519 54.7567 37.9286C56.4763 32.1052 56.3268 25.8987 54.3829 20.1519C52.439 14.4052 48.7754 9.50129 43.8408 6.05324C38.981 2.60518 33.1492 0.842846 27.2427 0.996093V0.766223Z" fill="#0C1E34"/>
<path d="M27.9907 51.4144C24.701 51.4144 21.4861 50.6481 18.4954 49.1157C15.5795 47.5832 12.9627 45.4377 11.0188 42.7559C9.07484 40.0741 7.65427 36.9326 7.05614 33.6377C6.45801 30.3429 6.60755 26.8949 7.50474 23.6767C10.7197 12.1066 22.5328 5.36372 33.8225 8.65852C39.2804 10.2676 43.8412 13.9455 46.6076 19.0027C49.3739 24.0598 50.0468 30.0364 48.4767 35.5533C45.8599 45.1313 37.3365 51.4144 27.9907 51.4144ZM28.0655 8.35203C19.0188 8.35203 10.7197 14.4819 8.10287 23.7533C7.20568 26.8949 7.05614 30.2663 7.65427 33.4845C8.25241 36.7027 9.52344 39.7676 11.4674 42.3728C13.4113 44.978 15.8786 47.1235 18.7945 48.5793C21.6356 50.0351 24.8505 50.8014 27.9907 50.8014C37.0375 50.8014 45.3365 44.6715 47.9533 35.4001C48.8505 32.2585 49.0001 28.8871 48.4019 25.6689C47.8038 22.4507 46.5328 19.3858 44.5889 16.7806C42.6449 14.1754 40.1776 12.03 37.2618 10.5741C34.4206 9.11827 31.2804 8.35203 28.0655 8.35203Z" fill="#0C1E34"/>
<path d="M31.5047 50.5713C31.5047 50.6479 29.6355 50.4947 29.4112 50.4181C27.6916 50.3414 25.972 50.1116 24.3271 49.5752C22.6823 49.0388 21.2617 48.196 19.9159 47.1233C19.5421 46.8168 19.243 46.5869 18.9439 46.2804C16.0281 43.6752 13.7103 40.3038 12.3645 36.6259C10.9439 32.8713 10.4206 28.8869 10.8692 24.9025C10.9439 24.2895 11.0187 23.7531 11.0935 23.1401C12.1402 19.6155 13.9346 16.244 16.5514 13.6388C17.5981 12.5661 18.7196 11.4934 20.0654 10.7272C21.9346 9.5778 24.6262 8.88819 26.7196 8.50508C26.9439 8.42845 27.6168 8.42845 27.6168 8.04534C27.6168 7.81547 26.5701 7.89209 26.3458 7.96871C22.8318 8.19858 19.5421 9.50118 16.8505 11.7999C16.7757 11.7233 16.701 11.6466 16.6262 11.6466C16.5514 11.6466 16.4019 11.6466 16.3271 11.7233C15.8785 12.0298 15.4299 12.4129 14.9813 12.796C14.9066 12.796 14.8318 12.796 14.757 12.8726C14.6823 12.8726 14.6075 12.9492 14.6075 13.0259C14.3832 13.2557 14.1589 13.5622 13.9346 13.7921C13.5608 14.1752 13.1122 14.6349 12.8131 15.0181C12.8131 15.0181 12.8131 15.0181 12.7383 15.0947C11.9159 16.0142 11.1682 17.0869 10.4206 18.1596L10.271 18.3895C10.1963 18.3895 10.0467 18.4661 9.97198 18.5427C9.89722 18.6194 9.82245 18.696 9.82245 18.8492C9.74768 19.0791 9.67292 19.309 9.59815 19.5388C8.32712 21.5311 7.28039 23.8298 7.42992 26.2051C7.13086 27.6609 7.05609 29.0401 7.20563 30.496C7.20563 30.5726 7.20563 30.5726 7.20563 30.6492C7.13086 31.4921 7.28039 32.4116 7.42992 33.2544C7.42992 33.3311 7.50469 33.4077 7.57946 33.4843C7.95329 35.0934 8.47665 36.6259 9.14955 38.1583C9.14955 38.3116 9.14955 38.4648 9.22432 38.5414C9.37385 38.8479 9.52338 39.1544 9.74768 39.4609L10.0467 39.9973C10.3458 40.6103 10.6449 41.1466 10.9439 41.683C10.9439 41.7596 10.9439 41.8363 11.0187 41.9129C11.6168 42.8324 12.2897 43.7518 13.0374 44.5181C13.3365 45.1311 13.7851 45.5908 14.3832 45.8973C14.5327 45.9739 14.6823 45.9739 14.8318 45.9739L15.729 46.7401H15.8038L15.8785 46.8168C15.9533 46.8168 15.9533 46.8934 16.0281 46.8934C16.0281 46.97 16.0281 47.0466 16.1028 47.1233C16.1776 47.1999 16.1776 47.2765 16.2524 47.2765C17.4486 47.9661 18.5701 48.7324 19.8411 49.2687C19.7664 49.1155 20.2897 49.422 20.2897 49.2687C22.0841 50.2648 23.4299 50.5713 25.4486 50.9544C25.8224 51.0311 26.1963 51.1077 26.5701 51.0311C26.6449 51.0311 26.7944 51.0311 26.8692 50.9544C26.9439 50.9544 27.0187 50.8778 27.0187 50.8778C27.0935 50.8778 27.243 50.8778 27.3178 50.8778C28.514 51.0311 29.7103 51.1077 30.9066 51.0311C31.2056 51.0311 31.5795 50.9544 31.729 50.6479V50.5713V50.4947C31.729 50.4947 31.6542 50.4947 31.6542 50.4181C31.5047 50.5713 31.5047 50.5713 31.5047 50.5713Z" fill="#0C1E34"/>
<path d="M36.2148 35.1701C36.2148 32.3351 33.8971 29.8831 30.9064 29.5L30.8317 19.539H33.6728H33.7476C33.7476 19.539 33.8223 19.539 33.8223 19.4623L33.8971 19.3857V19.3091V19.2325C33.8971 19.2325 33.8971 19.1558 33.8223 19.1558L33.7476 19.0792H33.6728H30.8317V17.0104V16.9338C30.8317 16.9338 30.8317 16.8571 30.7569 16.8571L30.6821 16.7805H30.6074C30.5326 16.7805 30.4578 16.7805 30.3831 16.8571C30.3083 16.9338 30.3083 17.0104 30.3083 17.087V19.1558H26.7943V17.087C26.7943 17.0104 26.7943 16.9338 26.7195 16.8571C26.6448 16.7805 26.57 16.7805 26.4952 16.7805H26.4205C26.4205 16.7805 26.3457 16.7805 26.3457 16.8571L26.2709 16.9338V17.0104V19.0792H26.0466C22.8317 19.0792 20.2148 21.5312 20.2148 24.5195C20.2148 25.2857 20.3644 26.0519 20.6634 26.7416C20.9625 27.4312 21.4111 28.0442 21.9345 28.5039C23.056 29.5 24.5513 30.113 26.1214 30.0364H26.3457L26.4205 40.2273H22.084C22.0092 40.2273 22.0092 40.2273 21.9345 40.3039C21.8597 40.3039 21.8597 40.3805 21.8597 40.4571C21.8597 40.5338 21.8597 40.5338 21.8597 40.6104C21.8597 40.687 21.9345 40.687 21.9345 40.7636C22.0092 40.8403 22.084 40.8403 22.084 40.8403H26.4205V43.4455C26.4205 43.5221 26.4205 43.5221 26.4205 43.5987L26.4952 43.6753C26.57 43.7519 26.6448 43.7519 26.6448 43.7519H26.7195C26.7195 43.7519 26.7943 43.7519 26.7943 43.6753L26.8691 43.5987V43.5221V40.9169H30.084C30.1588 40.9169 30.2335 40.9169 30.3083 40.9169V43.4455C30.3083 43.5221 30.3083 43.5221 30.3083 43.5221L30.3831 43.5987C30.4578 43.5987 30.4578 43.6753 30.5326 43.6753C30.6074 43.6753 30.6074 43.6753 30.6821 43.6753C30.7569 43.6753 30.7569 43.5987 30.8317 43.5987C30.8317 43.5221 30.9064 43.5221 30.9064 43.4455V40.8403C32.4018 40.687 33.8223 39.9208 34.7943 38.8481C35.7662 37.7753 36.2148 36.4727 36.2148 35.1701ZM30.3083 19.539L30.3831 29.5C30.3083 29.5 30.2335 29.5 30.1588 29.5H26.8691V19.539H30.3083ZM26.1214 29.4234C24.7008 29.4234 23.355 28.9636 22.3831 27.9675C21.8597 27.5078 21.4859 26.9714 21.1868 26.3584C20.8877 25.7455 20.7382 25.0558 20.813 24.3662C20.813 21.6844 23.2055 19.539 26.1214 19.4623H26.3457L26.4205 29.3468L26.1214 29.4234ZM30.1588 40.2273H26.9438L26.8691 30.0364H30.1588C30.2335 30.0364 30.3083 30.0364 30.3831 30.0364L30.4578 40.2273C30.3831 40.2273 30.2335 40.2273 30.1588 40.2273ZM30.9812 40.1506L30.9064 30.0364C33.598 30.4195 35.6915 32.5649 35.6915 35.0935C35.6915 36.2429 35.2429 37.3922 34.4952 38.3117C33.598 39.3078 32.327 39.9974 30.9812 40.1506Z" fill="#0C1E34"/>
<g opacity="0.5">
<g opacity="0.5">
<path d="M53.8598 18.083C52.5888 19.4623 50.9439 20.9947 48.7009 22.9103C39.1308 30.8791 36.2897 27.3545 26.7944 35.3233C17.8224 42.8324 19.7664 46.4337 12.1402 53.483C6.75701 49.7285 2.86916 44.2116 1 37.7752C7.72897 31.1856 6.23365 27.5843 14.8318 20.3817C24.4019 12.4129 27.243 15.9376 36.7383 7.96875C38.2336 6.74278 39.5794 5.36356 40.7757 3.90771C46.6822 6.89603 51.243 11.9532 53.8598 18.083Z" fill="white"/>
</g>
<g opacity="0.5">
<path d="M55.6539 35.3234C47.5791 41.4532 44.5884 39.0013 35.6913 46.5104C29.6352 51.5675 28.5137 54.7857 26.1212 58.4636C22.4576 58.2338 18.8688 57.2376 15.5791 55.5519C22.0838 49.1922 20.8127 45.6675 29.3361 38.5415C38.9062 30.5727 41.5978 33.9441 51.0931 25.8987C52.5884 24.6727 53.9342 23.3701 55.2053 21.8376C56.4015 26.2052 56.5511 30.8026 55.6539 35.3234Z" fill="white"/>
</g>
</g>
</g>
<defs>
<clipPath id="clip0_234_11375">
<rect width="65" height="59" fill="white"/>
</clipPath>
</defs>
</svg>
