<svg width="18" height="16" viewBox="0 0 18 16" fill="none" xmlns="http://www.w3.org/2000/svg">
<path d="M4.05306 6.76036C4.71834 4.3199 6.96626 2.52473 9.65479 2.52473C12.8574 2.52473 15.4494 5.08493 15.4494 8.25C15.4494 11.4149 12.8575 13.9682 9.65479 13.9682C7.78105 13.9682 6.12476 13.092 5.07656 11.7332L5.07667 11.7331L5.07311 11.729C4.91909 11.5504 4.72623 11.4277 4.51857 11.3857C4.30918 11.3434 4.091 11.3845 3.8945 11.5231L3.89434 11.5232C3.51487 11.7919 3.45154 12.3152 3.78816 12.7264C5.10156 14.4703 7.31358 15.6 9.65479 15.6C13.7618 15.6 17.1 12.3069 17.1 8.25C17.1 4.19306 13.7618 0.9 9.65479 0.9C6.05931 0.9 3.05808 3.41287 2.36285 6.76036H1.52742C1.23867 6.76036 1.02385 6.86837 0.937959 7.06617C0.854208 7.25906 0.913013 7.49383 1.06997 7.70562C1.07006 7.70574 1.07016 7.70587 1.07025 7.70599L2.71908 9.97181C2.71913 9.97188 2.71918 9.97195 2.71922 9.97202C2.84786 10.1505 3.02172 10.2487 3.20612 10.2476C3.38998 10.2465 3.56308 10.1467 3.69133 9.97268L3.69176 9.97208L5.34097 7.69872C5.34104 7.69863 5.34111 7.69853 5.34118 7.69844C5.49503 7.48949 5.55128 7.25654 5.46765 7.0651C5.38193 6.86885 5.16955 6.76036 4.88361 6.76036H4.05306ZM8.33247 9.65823L8.33257 9.65819L8.33062 9.65396C8.27369 9.53034 8.20609 9.43094 8.1141 9.3634C8.02012 9.29439 7.91075 9.26592 7.78472 9.26592C7.64125 9.26592 7.50442 9.30844 7.40187 9.39743C7.29757 9.48793 7.23675 9.61976 7.23675 9.78001C7.23675 9.88031 7.26196 9.97661 7.29938 10.0732C7.56608 10.8942 8.44753 11.3032 9.32726 11.3817V11.8855C9.32726 12.0703 9.48197 12.2101 9.65479 12.2101C9.82762 12.2101 9.98233 12.0703 9.98233 11.8855V11.3818C10.522 11.3352 11.0303 11.1781 11.4126 10.8898C11.8207 10.5821 12.0799 10.1284 12.0799 9.52033C12.0799 8.95872 11.8553 8.56507 11.4976 8.28529C11.1457 8.00998 10.6694 7.84814 10.1681 7.7315L10.1681 7.73148L10.1663 7.7311L9.98233 7.69184V6.02077C10.4164 6.09663 10.7169 6.33633 10.8545 6.73178L10.8541 6.7319L10.8575 6.73946C10.9121 6.86263 10.9839 6.96311 11.0795 7.03252C11.1762 7.10275 11.29 7.13582 11.4182 7.13582C11.543 7.13582 11.6762 7.09913 11.7805 7.017C11.8877 6.93259 11.9591 6.80383 11.9591 6.63577C11.9591 6.17823 11.6857 5.79524 11.2992 5.52078C10.9354 5.26245 10.4613 5.09196 9.98233 5.03639V4.53025C9.98233 4.35448 9.82967 4.20566 9.65479 4.20566C9.47992 4.20566 9.32726 4.35448 9.32726 4.53025V5.03449C8.80957 5.08341 8.32431 5.25587 7.95987 5.54503C7.57138 5.85329 7.32208 6.2934 7.32208 6.84632C7.32208 7.40242 7.5569 7.79551 7.91059 8.07255C8.25927 8.34566 8.72044 8.50409 9.17673 8.60701L9.32726 8.64415V10.3927C9.09921 10.3643 8.90875 10.3005 8.75259 10.1975C8.57354 10.0794 8.43261 9.90532 8.33247 9.65823ZM9.32726 7.54029C9.08852 7.47793 8.8828 7.39651 8.73173 7.28588C8.56013 7.16022 8.46067 6.99881 8.46067 6.77614C8.46067 6.54627 8.5674 6.37274 8.74217 6.24551C8.89541 6.13394 9.10074 6.05888 9.32726 6.02078V7.54029ZM9.98233 8.79777C10.2388 8.8616 10.4681 8.93756 10.6398 9.05034C10.8317 9.17632 10.9485 9.34542 10.9485 9.60455C10.9485 9.87767 10.8302 10.0615 10.6419 10.1872C10.4713 10.3011 10.2404 10.3686 9.98233 10.3995V8.79777Z" fill="#235697" stroke="#235697" stroke-width="0.2"/>
</svg>
