<svg width="24" height="24" viewBox="0 0 24 24" fill="none" xmlns="http://www.w3.org/2000/svg">
<mask id="path-1-inside-1_212_2719" fill="white">
<path d="M23.8247 10.0505C23.6918 9.30462 23.5294 8.65477 23.3154 8.05662C22.9906 7.14831 22.6806 6.46892 22.282 5.856C22.6437 5.50892 22.998 5.16185 23.3449 4.8C23.5663 4.57108 23.6549 4.24615 23.5663 3.95077C23.4778 3.648 23.2342 3.41908 22.9168 3.34523C22.8061 3.31569 22.688 3.30831 22.5551 3.30092L21.9646 3.24923C21.5882 3.21969 21.2117 3.19015 20.8279 3.16062L20.6655 1.24062C20.636 0.849231 20.4367 0.576 20.0972 0.443077C19.7429 0.310154 19.4107 0.391385 19.145 0.672C18.9088 0.923077 18.6652 1.16677 18.4216 1.41046L18.1338 1.69846C17.6097 1.39569 17.0413 1.08554 16.4361 0.856615C14.9377 0.280615 13.4467 0 11.8671 0C11.4907 0 11.0183 0.0295385 10.5237 0.0886154C9.38703 0.228923 8.26508 0.539077 7.10623 1.03385C6.22787 1.41046 5.45284 1.92738 4.88449 2.34092C3.61492 3.24923 2.55203 4.43815 1.63676 5.95938C1.01673 6.98585 0.56648 8.13785 0.300756 9.37846C0.130988 10.1391 0.0350323 10.8849 0.00550741 11.6086C-0.0240174 12.5391 0.0645571 13.5065 0.285993 14.5625C0.69196 16.5268 1.59985 18.3212 2.98014 19.9015C4.08732 21.1717 5.41594 22.1686 6.92908 22.8702C8.13222 23.4314 9.37965 23.7858 10.6345 23.9262C11.0773 23.9778 11.5202 24 11.9631 24C12.5019 24 13.0407 23.9631 13.5796 23.8892C15.0263 23.6898 16.4213 23.2394 17.713 22.5526C18.6874 22.0357 19.6026 21.3563 20.4293 20.5366C22.4075 18.5797 23.5811 16.1502 23.9206 13.3292C24.0535 12.2511 24.0166 11.1434 23.8321 10.0505H23.8247ZM10.9076 22.1908C9.01797 21.9914 7.31291 21.3194 5.83667 20.1969C4.19065 18.9415 3.00966 17.3317 2.33059 15.4191C2.03534 14.592 1.85081 13.6911 1.79176 12.7311C1.68104 11.0991 1.91724 9.56308 2.50036 8.15262C3.04657 6.83815 3.80683 5.68615 4.76639 4.74092C6.10977 3.41169 7.68935 2.51077 9.46822 2.06031C10.2728 1.85354 11.1069 1.75015 11.9631 1.75015C12.3469 1.75015 12.7307 1.77231 13.1145 1.80923C14.4358 1.94954 15.6832 2.33354 16.8273 2.95385C16.8421 2.95385 16.8494 2.96862 16.8642 2.96862C16.8568 2.976 16.8494 2.98338 16.8421 2.99077L16.7904 3.04246C16.628 3.20492 16.4656 3.36738 16.2958 3.52985C16.067 3.75138 15.9711 4.02462 16.008 4.35692C16.0227 4.48246 16.0301 4.61538 16.0375 4.74831C16.0375 4.82954 16.0523 4.91815 16.0596 4.99938C15.9489 4.94031 15.8382 4.87385 15.7349 4.82215C14.9082 4.38646 13.9708 4.09846 12.9595 3.97292C11.9114 3.84 10.8559 3.92123 9.8299 4.21662C8.88511 4.48985 8.04365 4.896 7.32767 5.42031C5.88833 6.48369 4.88449 7.85723 4.33828 9.52615C4.00612 10.5452 3.88064 11.5791 3.9766 12.6129C4.19065 14.976 5.26093 16.9329 7.17266 18.4246C7.83697 18.9489 8.63414 19.3551 9.60108 19.68C10.4721 19.968 11.3873 20.1009 12.31 20.0566C13.8896 19.9828 15.3141 19.5102 16.5468 18.6535C17.7204 17.8412 18.6135 16.8222 19.2114 15.6332C19.6395 14.784 19.9126 13.8757 20.0234 12.9305C20.2226 11.2911 19.9126 9.68123 19.1081 8.13785C19.0712 8.07139 19.0343 7.99754 18.99 7.93108C19.1745 7.94585 19.3517 7.96062 19.5362 7.99015C19.9643 8.04923 20.2965 7.93108 20.5548 7.62092C20.6655 7.488 20.7836 7.36985 20.9091 7.25169C20.9534 7.20738 20.9977 7.17046 21.0346 7.12615C21.2782 7.61354 21.4996 8.05662 21.6694 8.52185C22.1049 9.73292 22.3041 11.0178 22.2525 12.3323C22.1565 14.6954 21.3741 16.7705 19.92 18.5132C19.0786 19.5249 18.0673 20.352 16.9306 20.9797C16.0375 21.4671 15.1075 21.8142 14.1553 22.0062C13.0629 22.2277 11.9852 22.2868 10.9297 22.1686L10.9076 22.1908ZM11.4021 11.3723C11.0626 11.712 11.0404 12.1846 11.3357 12.5465C11.6309 12.9083 12.1328 12.9674 12.5093 12.6942C12.5757 12.6498 12.6274 12.5908 12.7012 12.5243L12.775 12.4505C13.1884 12.0369 13.6017 11.6234 14.0224 11.1951C14.1258 11.4462 14.1701 11.7046 14.1701 11.9926C14.1922 13.1372 13.2991 13.9791 12.4281 14.1342C11.5866 14.2818 10.8854 14.0308 10.3466 13.3957C9.75609 12.6942 9.64537 11.9188 10.0292 11.0991C10.3466 10.4123 10.8707 9.99877 11.594 9.86585C11.7416 9.83631 11.8819 9.82892 12.0221 9.82892C12.2952 9.82892 12.5536 9.88062 12.8045 9.97662C12.3395 10.4418 11.8671 10.9071 11.4095 11.3797L11.4021 11.3723ZM19.9422 5.74523C19.7872 5.90031 19.6248 6.06277 19.4329 6.23261C18.9162 6.18831 18.4069 6.144 17.8828 6.10708C17.8533 5.73046 17.8238 5.35385 17.7868 4.97723L17.7352 4.54154L19.0638 3.21969L19.1007 3.67015C19.1081 3.79569 19.1228 3.92123 19.1302 4.04677C19.1745 4.48246 19.5141 4.80738 19.9864 4.85169L20.7689 4.92554L19.9348 5.75262L19.9422 5.74523ZM18.2814 12.5982C18.1928 13.6025 17.8607 14.5477 17.2702 15.4855C16.7535 16.2905 16.0375 16.9551 15.0779 17.5237C14.362 17.9446 13.5574 18.2031 12.6717 18.2991C12.4429 18.3212 12.1993 18.336 11.9409 18.3286C10.8411 18.3138 9.82252 18.048 8.91463 17.5311C8.07317 17.0511 7.42363 16.4751 6.91432 15.7662C6.30906 14.9095 5.94 14.0677 5.785 13.1815C5.6669 12.4726 5.65213 11.7785 5.74071 11.1138C5.83667 10.4049 6.0581 9.71077 6.4124 9.05354C7.06195 7.83508 8.02888 6.912 9.29107 6.29169C10.1251 5.88554 11.0183 5.68615 12.0147 5.68615C12.1476 5.68615 12.2878 5.68615 12.4281 5.69354C13.6238 5.75262 14.731 6.16615 15.8161 6.96369C15.2403 7.53969 14.6646 8.11569 14.0815 8.69908C12.4207 7.65046 10.3097 7.95323 9.04749 9.43015C8.28723 10.3163 7.96984 11.328 8.1027 12.4431C8.31675 14.2154 9.6749 15.6258 11.4169 15.8843C13.0555 16.128 15.137 15.2345 15.7496 13.1003C16.0006 12.2142 15.9415 11.3206 15.5725 10.4418C15.4913 10.2498 15.388 10.08 15.292 9.91754C15.8677 9.34154 16.4508 8.76554 17.0266 8.18215C17.4178 8.71385 17.7278 9.30462 17.9566 9.92492C18.2592 10.7446 18.3626 11.6234 18.2814 12.6055V12.5982Z"/>
</mask>
<path d="M23.8247 10.0505C23.6918 9.30462 23.5294 8.65477 23.3154 8.05662C22.9906 7.14831 22.6806 6.46892 22.282 5.856C22.6437 5.50892 22.998 5.16185 23.3449 4.8C23.5663 4.57108 23.6549 4.24615 23.5663 3.95077C23.4778 3.648 23.2342 3.41908 22.9168 3.34523C22.8061 3.31569 22.688 3.30831 22.5551 3.30092L21.9646 3.24923C21.5882 3.21969 21.2117 3.19015 20.8279 3.16062L20.6655 1.24062C20.636 0.849231 20.4367 0.576 20.0972 0.443077C19.7429 0.310154 19.4107 0.391385 19.145 0.672C18.9088 0.923077 18.6652 1.16677 18.4216 1.41046L18.1338 1.69846C17.6097 1.39569 17.0413 1.08554 16.4361 0.856615C14.9377 0.280615 13.4467 0 11.8671 0C11.4907 0 11.0183 0.0295385 10.5237 0.0886154C9.38703 0.228923 8.26508 0.539077 7.10623 1.03385C6.22787 1.41046 5.45284 1.92738 4.88449 2.34092C3.61492 3.24923 2.55203 4.43815 1.63676 5.95938C1.01673 6.98585 0.56648 8.13785 0.300756 9.37846C0.130988 10.1391 0.0350323 10.8849 0.00550741 11.6086C-0.0240174 12.5391 0.0645571 13.5065 0.285993 14.5625C0.69196 16.5268 1.59985 18.3212 2.98014 19.9015C4.08732 21.1717 5.41594 22.1686 6.92908 22.8702C8.13222 23.4314 9.37965 23.7858 10.6345 23.9262C11.0773 23.9778 11.5202 24 11.9631 24C12.5019 24 13.0407 23.9631 13.5796 23.8892C15.0263 23.6898 16.4213 23.2394 17.713 22.5526C18.6874 22.0357 19.6026 21.3563 20.4293 20.5366C22.4075 18.5797 23.5811 16.1502 23.9206 13.3292C24.0535 12.2511 24.0166 11.1434 23.8321 10.0505H23.8247ZM10.9076 22.1908C9.01797 21.9914 7.31291 21.3194 5.83667 20.1969C4.19065 18.9415 3.00966 17.3317 2.33059 15.4191C2.03534 14.592 1.85081 13.6911 1.79176 12.7311C1.68104 11.0991 1.91724 9.56308 2.50036 8.15262C3.04657 6.83815 3.80683 5.68615 4.76639 4.74092C6.10977 3.41169 7.68935 2.51077 9.46822 2.06031C10.2728 1.85354 11.1069 1.75015 11.9631 1.75015C12.3469 1.75015 12.7307 1.77231 13.1145 1.80923C14.4358 1.94954 15.6832 2.33354 16.8273 2.95385C16.8421 2.95385 16.8494 2.96862 16.8642 2.96862C16.8568 2.976 16.8494 2.98338 16.8421 2.99077L16.7904 3.04246C16.628 3.20492 16.4656 3.36738 16.2958 3.52985C16.067 3.75138 15.9711 4.02462 16.008 4.35692C16.0227 4.48246 16.0301 4.61538 16.0375 4.74831C16.0375 4.82954 16.0523 4.91815 16.0596 4.99938C15.9489 4.94031 15.8382 4.87385 15.7349 4.82215C14.9082 4.38646 13.9708 4.09846 12.9595 3.97292C11.9114 3.84 10.8559 3.92123 9.8299 4.21662C8.88511 4.48985 8.04365 4.896 7.32767 5.42031C5.88833 6.48369 4.88449 7.85723 4.33828 9.52615C4.00612 10.5452 3.88064 11.5791 3.9766 12.6129C4.19065 14.976 5.26093 16.9329 7.17266 18.4246C7.83697 18.9489 8.63414 19.3551 9.60108 19.68C10.4721 19.968 11.3873 20.1009 12.31 20.0566C13.8896 19.9828 15.3141 19.5102 16.5468 18.6535C17.7204 17.8412 18.6135 16.8222 19.2114 15.6332C19.6395 14.784 19.9126 13.8757 20.0234 12.9305C20.2226 11.2911 19.9126 9.68123 19.1081 8.13785C19.0712 8.07139 19.0343 7.99754 18.99 7.93108C19.1745 7.94585 19.3517 7.96062 19.5362 7.99015C19.9643 8.04923 20.2965 7.93108 20.5548 7.62092C20.6655 7.488 20.7836 7.36985 20.9091 7.25169C20.9534 7.20738 20.9977 7.17046 21.0346 7.12615C21.2782 7.61354 21.4996 8.05662 21.6694 8.52185C22.1049 9.73292 22.3041 11.0178 22.2525 12.3323C22.1565 14.6954 21.3741 16.7705 19.92 18.5132C19.0786 19.5249 18.0673 20.352 16.9306 20.9797C16.0375 21.4671 15.1075 21.8142 14.1553 22.0062C13.0629 22.2277 11.9852 22.2868 10.9297 22.1686L10.9076 22.1908ZM11.4021 11.3723C11.0626 11.712 11.0404 12.1846 11.3357 12.5465C11.6309 12.9083 12.1328 12.9674 12.5093 12.6942C12.5757 12.6498 12.6274 12.5908 12.7012 12.5243L12.775 12.4505C13.1884 12.0369 13.6017 11.6234 14.0224 11.1951C14.1258 11.4462 14.1701 11.7046 14.1701 11.9926C14.1922 13.1372 13.2991 13.9791 12.4281 14.1342C11.5866 14.2818 10.8854 14.0308 10.3466 13.3957C9.75609 12.6942 9.64537 11.9188 10.0292 11.0991C10.3466 10.4123 10.8707 9.99877 11.594 9.86585C11.7416 9.83631 11.8819 9.82892 12.0221 9.82892C12.2952 9.82892 12.5536 9.88062 12.8045 9.97662C12.3395 10.4418 11.8671 10.9071 11.4095 11.3797L11.4021 11.3723ZM19.9422 5.74523C19.7872 5.90031 19.6248 6.06277 19.4329 6.23261C18.9162 6.18831 18.4069 6.144 17.8828 6.10708C17.8533 5.73046 17.8238 5.35385 17.7868 4.97723L17.7352 4.54154L19.0638 3.21969L19.1007 3.67015C19.1081 3.79569 19.1228 3.92123 19.1302 4.04677C19.1745 4.48246 19.5141 4.80738 19.9864 4.85169L20.7689 4.92554L19.9348 5.75262L19.9422 5.74523ZM18.2814 12.5982C18.1928 13.6025 17.8607 14.5477 17.2702 15.4855C16.7535 16.2905 16.0375 16.9551 15.0779 17.5237C14.362 17.9446 13.5574 18.2031 12.6717 18.2991C12.4429 18.3212 12.1993 18.336 11.9409 18.3286C10.8411 18.3138 9.82252 18.048 8.91463 17.5311C8.07317 17.0511 7.42363 16.4751 6.91432 15.7662C6.30906 14.9095 5.94 14.0677 5.785 13.1815C5.6669 12.4726 5.65213 11.7785 5.74071 11.1138C5.83667 10.4049 6.0581 9.71077 6.4124 9.05354C7.06195 7.83508 8.02888 6.912 9.29107 6.29169C10.1251 5.88554 11.0183 5.68615 12.0147 5.68615C12.1476 5.68615 12.2878 5.68615 12.4281 5.69354C13.6238 5.75262 14.731 6.16615 15.8161 6.96369C15.2403 7.53969 14.6646 8.11569 14.0815 8.69908C12.4207 7.65046 10.3097 7.95323 9.04749 9.43015C8.28723 10.3163 7.96984 11.328 8.1027 12.4431C8.31675 14.2154 9.6749 15.6258 11.4169 15.8843C13.0555 16.128 15.137 15.2345 15.7496 13.1003C16.0006 12.2142 15.9415 11.3206 15.5725 10.4418C15.4913 10.2498 15.388 10.08 15.292 9.91754C15.8677 9.34154 16.4508 8.76554 17.0266 8.18215C17.4178 8.71385 17.7278 9.30462 17.9566 9.92492C18.2592 10.7446 18.3626 11.6234 18.2814 12.6055V12.5982Z" fill="#8E979F" stroke="#8E979F" stroke-width="2" mask="url(#path-1-inside-1_212_2719)"/>
</svg>
