<svg width="24" height="24" viewBox="0 0 24 24" fill="none" xmlns="http://www.w3.org/2000/svg">
<path d="M1.01228 12.3235C0.383292 12.3235 0 11.8922 0 11.3824C0 11.1078 0.127764 10.8235 0.383292 10.6078L10.6241 2.02941C11.0565 1.67647 11.5283 1.5 12 1.5C12.4717 1.5 12.9435 1.67647 13.3759 2.02941L18.231 6.10784V4.36275C18.231 3.93137 18.5258 3.64706 18.9681 3.64706H20.2948C20.7273 3.64706 21.0123 3.93137 21.0123 4.36275V8.43137L23.6167 10.6078C23.8722 10.8235 24 11.1078 24 11.3824C24 11.8922 23.6167 12.3235 22.9975 12.3235C22.6929 12.3235 22.4177 12.1667 22.1818 11.9608L21.0123 10.9902V20.1961C21.0123 21.6471 20.1376 22.5 18.6536 22.5H5.35627C3.86241 22.5 2.98772 21.6471 2.98772 20.1961V10.9902L1.81818 11.9608C1.58231 12.1667 1.31695 12.3235 1.01228 12.3235ZM14.8403 14.8824V20.5784H18.1425C18.7518 20.5784 19.086 20.2353 19.086 19.6176V9.37255L12.4226 3.79412C12.285 3.67647 12.1376 3.62745 12 3.62745C11.8624 3.62745 11.715 3.67647 11.5872 3.79412L4.914 9.37255V19.6176C4.914 20.2353 5.24816 20.5784 5.85749 20.5784H9.15971V14.8824C9.15971 14.4216 9.46437 14.1275 9.92629 14.1275H14.0835C14.5455 14.1275 14.8403 14.4216 14.8403 14.8824Z" fill="#8E979F"/>
</svg>
