<svg width="62" height="62" viewBox="0 0 62 62" fill="none" xmlns="http://www.w3.org/2000/svg">
<g clip-path="url(#clip0_582_23637)">
<path d="M49.5228 0H12.4772C5.58623 0 0 5.58623 0 12.4772V49.5228C0 56.4138 5.58623 62 12.4772 62H49.5228C56.4138 62 62 56.4138 62 49.5228V12.4772C62 5.58623 56.4138 0 49.5228 0Z" fill="#235697"/>
<path d="M51.487 26.268C49.0408 22.0646 46.6039 17.8559 44.188 13.6354C43.9417 13.2047 43.6532 13.0993 43.1987 13.1006C39.7685 13.1138 36.3384 13.1085 32.9082 13.1098C32.7673 13.1098 32.6276 13.1256 32.3721 13.1428C32.546 13.4615 32.6566 13.6736 32.7752 13.8804C35.1449 17.9877 37.5081 22.0989 39.899 26.193C40.1716 26.6593 40.1532 26.9899 39.8884 27.4444C37.487 31.5608 35.1094 35.6918 32.7264 39.8188C32.326 40.5117 32.3286 40.517 33.1466 40.517C36.4793 40.517 39.812 40.5038 43.1447 40.5275C43.6782 40.5315 43.9746 40.3563 44.2367 39.8992C46.6421 35.701 49.0632 31.5121 51.4975 27.3298C51.7267 26.9372 51.7057 26.6474 51.4844 26.268H51.487Z" fill="white"/>
<path d="M33.7998 26.8105C28.5492 26.8105 23.2972 26.8105 18.0466 26.8105C17.8569 26.8105 17.6672 26.8105 17.2615 26.8105C18.3548 28.0633 19.2901 29.1777 20.2754 30.2434C20.6534 30.6517 20.6772 30.9428 20.3939 31.4276C17.6501 36.1289 14.9338 40.8461 12.2124 45.5606C11.5972 46.6263 10.9886 47.6946 10.3379 48.8327C10.5566 48.8577 10.6685 48.8814 10.7818 48.8814C14.3068 48.8854 17.8318 48.8748 21.3569 48.9012C21.8337 48.9051 21.9826 48.6377 22.1657 48.3189C26.1741 41.373 30.1839 34.4283 34.1937 27.4837C34.577 26.8198 34.573 26.8119 33.8011 26.8119L33.7998 26.8105Z" fill="white"/>
</g>
<defs>
<clipPath id="clip0_582_23637">
<rect width="62" height="62" fill="white"/>
</clipPath>
</defs>
</svg>
