<svg width="138" height="26" viewBox="0 0 138 26" fill="none" xmlns="http://www.w3.org/2000/svg">
<g clip-path="url(#clip0_582_23697)">
<path d="M55.2261 19.0602H51.8567V13.0621C51.8567 11.3447 51.3678 10.1825 49.6013 10.1825C47.8349 10.1825 47.346 11.3447 47.346 13.0621V19.0602H43.9484V13.0621C43.9484 11.3447 43.4594 10.1825 41.693 10.1825C39.9266 10.1825 39.4377 11.3447 39.4377 13.0621V19.0602H36.04V7.53944H39.4377V8.2262C40.2263 7.61828 41.1771 7.24805 42.2642 7.24805C44.194 7.24805 45.5526 7.9611 46.3682 9.20322C47.292 8.0148 48.5965 7.24805 50.1725 7.24805C53.6243 7.24805 55.2273 9.59974 55.2273 12.9559V19.0602H55.2261Z" fill="#1E1E1E"/>
<path d="M67.1549 7.53906L62.4526 22.9965H59.055L60.2514 19.0598H58.7294L55.2236 7.53906H58.6213L61.1763 15.9951L63.7584 7.53906H67.156H67.1549Z" fill="#1E1E1E"/>
<path d="M75.5795 3.81348C78.406 3.81348 80.6884 6.03375 80.6884 8.78082C80.6884 11.5279 78.406 13.7744 75.5795 13.7744H71.6389V19.0595H68.2412V3.81348H75.5783H75.5795ZM77.2919 8.78082C77.2919 7.85637 76.5315 7.08962 75.5795 7.08962H71.6389V10.472H75.5795C76.5303 10.472 77.2919 9.70527 77.2919 8.78082Z" fill="#1E1E1E"/>
<path d="M93.4342 13.2997C93.4342 16.6558 90.6347 19.3503 87.183 19.3503C83.7312 19.3503 80.96 16.6546 80.96 13.2997C80.96 9.94467 83.7594 7.24902 87.183 7.24902C90.6065 7.24902 93.4342 9.94467 93.4342 13.2997ZM90.3902 13.2997C90.3902 11.5822 88.9494 10.1812 87.183 10.1812C85.4165 10.1812 84.0039 11.5822 84.0039 13.2997C84.0039 15.0171 85.4165 16.4181 87.183 16.4181C88.9494 16.4181 90.3902 15.0171 90.3902 13.2997Z" fill="#1E1E1E"/>
<path d="M106.205 15.6776C105.254 17.8442 103.053 19.3503 100.471 19.3503C97.0463 19.3503 94.248 16.6546 94.248 13.2997C94.248 9.94467 97.0475 7.24902 100.471 7.24902C103.053 7.24902 105.254 8.75511 106.205 10.8954L103.325 11.9261C102.809 10.8954 101.722 10.1824 100.471 10.1824C98.7046 10.1824 97.292 11.5833 97.292 13.3008C97.292 15.0183 98.7046 16.4192 100.471 16.4192C101.776 16.4192 102.863 15.6799 103.379 14.5955L106.205 15.6788V15.6776Z" fill="#1E1E1E"/>
<path d="M118.978 19.0599H114.737L110.689 14.2239V19.0599H107.291V3.17969H110.689V12.2162L114.575 7.53911H118.597L113.65 13.2995L118.977 19.0599H118.978Z" fill="#1E1E1E"/>
<path d="M128.57 16.946C127.429 18.3996 125.608 19.3503 123.57 19.3503C120.145 19.3503 117.347 16.6546 117.347 13.2997C117.347 9.94467 120.146 7.24902 123.57 7.24902C126.993 7.24902 129.82 9.97095 129.82 13.2997C129.82 14.0927 129.629 14.7795 129.629 14.7795H120.77C121.313 15.7576 122.373 16.4181 123.57 16.4181C124.52 16.4181 125.39 15.9953 125.961 15.3611L128.57 16.946ZM120.77 11.8198H126.396C125.852 10.868 124.793 10.1812 123.57 10.1812C122.346 10.1812 121.314 10.868 120.77 11.8198Z" fill="#1E1E1E"/>
<path d="M135.853 10.4987V14.7267C135.853 15.4934 136.505 16.1002 137.294 16.1002H138V19.0598H136.75C134.385 19.0598 132.455 17.1835 132.455 14.8844V10.4975H130.362V7.5379H132.455V4.63086H135.853V7.5379H138V10.4975H135.853V10.4987Z" fill="#1E1E1E"/>
<path d="M30.735 9.56332C28.9087 6.51001 27.087 3.45441 25.2842 0.388533C25.0997 0.0754312 24.8846 -0.00113017 24.545 1.25409e-05C21.9829 0.0102969 19.4208 0.00572607 16.8588 0.00686878C16.7542 0.00686878 16.6496 0.0182958 16.458 0.0308656C16.5873 0.261692 16.6707 0.415958 16.7601 0.566795C18.53 3.54926 20.2952 6.53515 22.0816 9.50847C22.2849 9.84671 22.272 10.0878 22.0746 10.4169C20.2811 13.4062 18.5053 16.407 16.7248 19.4043C16.4263 19.9082 16.4286 19.9117 17.0386 19.9117C19.5278 19.9117 22.017 19.9025 24.5062 19.9197C24.9046 19.922 25.1255 19.7963 25.3218 19.4637C27.1188 16.415 28.9275 13.372 30.7456 10.3358C30.916 10.0501 30.9008 9.841 30.7362 9.56446L30.735 9.56332Z" fill="#235697"/>
<path d="M17.5253 9.95801C13.6034 9.95801 9.6804 9.95801 5.75857 9.95801C5.61754 9.95801 5.47533 9.95801 5.17211 9.95801C5.98892 10.8687 6.68702 11.6766 7.42391 12.4503C7.70597 12.7462 7.7236 12.9576 7.51205 13.3107C5.4624 16.7251 3.43391 20.151 1.40071 23.5745C0.941183 24.3481 0.487533 25.1252 0.000976562 25.9513C0.164337 25.9696 0.247781 25.9868 0.332399 25.9868C2.96498 25.989 5.59873 25.9822 8.23131 26.0016C8.58741 26.0039 8.69789 25.8096 8.83539 25.5788C11.8288 20.5349 14.8245 15.491 17.8191 10.4471C18.1058 9.96486 18.1023 9.95915 17.5264 9.95915L17.5253 9.95801Z" fill="#235697"/>
</g>
<defs>
<clipPath id="clip0_582_23697">
<rect width="138" height="26" fill="white"/>
</clipPath>
</defs>
</svg>
