<svg width="257" height="50" viewBox="0 0 257 50" fill="none" xmlns="http://www.w3.org/2000/svg">
<g clip-path="url(#clip0_582_23671)">
<path d="M102.848 36.6532H96.5728V25.1184C96.5728 21.8156 95.6623 19.5807 92.3727 19.5807C89.083 19.5807 88.1725 21.8156 88.1725 25.1184V36.6532H81.845V25.1184C81.845 21.8156 80.9345 19.5807 77.6449 19.5807C74.3552 19.5807 73.4447 21.8156 73.4447 25.1184V36.6532H67.1172V14.4979H73.4447V15.8186C74.9134 14.6495 76.684 13.9375 78.7086 13.9375C82.3024 13.9375 84.8326 15.3087 86.3515 17.6974C88.0719 15.412 90.5013 13.9375 93.4364 13.9375C99.8646 13.9375 102.85 18.46 102.85 24.9141V36.6532H102.848Z" fill="#FAFAFA"/>
<path d="M125.063 14.498L116.306 44.2238H109.979L112.207 36.6534H109.373L102.844 14.498H109.171L113.93 30.7596L118.738 14.498H125.066H125.063Z" fill="#FAFAFA"/>
<path d="M140.752 7.33398C146.016 7.33398 150.267 11.6038 150.267 16.8866C150.267 22.1694 146.016 26.4897 140.752 26.4897H133.413V36.6532H127.086V7.33398H140.75H140.752ZM143.941 16.8866C143.941 15.1088 142.525 13.6343 140.752 13.6343H133.413V20.1389H140.752C142.523 20.1389 143.941 18.6644 143.941 16.8866Z" fill="#FAFAFA"/>
<path d="M174.002 25.5753C174.002 32.0294 168.789 37.2111 162.361 37.2111C155.932 37.2111 150.771 32.0272 150.771 25.5753C150.771 19.1234 155.985 13.9395 162.361 13.9395C168.736 13.9395 174.002 19.1234 174.002 25.5753ZM168.334 25.5753C168.334 22.2724 165.65 19.5783 162.361 19.5783C159.071 19.5783 156.44 22.2724 156.44 25.5753C156.44 28.8781 159.071 31.5723 162.361 31.5723C165.65 31.5723 168.334 28.8781 168.334 25.5753Z" fill="#FAFAFA"/>
<path d="M197.787 30.1483C196.017 34.3148 191.917 37.2111 187.109 37.2111C180.731 37.2111 175.52 32.0272 175.52 25.5753C175.52 19.1234 180.733 13.9395 187.109 13.9395C191.917 13.9395 196.017 16.8358 197.787 20.9517L192.423 22.9339C191.462 20.9517 189.438 19.5805 187.109 19.5805C183.819 19.5805 181.188 22.2746 181.188 25.5775C181.188 28.8803 183.819 31.5745 187.109 31.5745C189.538 31.5745 191.563 30.1527 192.524 28.0673L197.787 30.1505V30.1483Z" fill="#FAFAFA"/>
<path d="M221.574 36.6531H213.677L206.137 27.3532V36.6531H199.81V6.11426H206.137V23.4922L213.375 14.4978H220.865L211.653 25.5754L221.572 36.6531H221.574Z" fill="#FAFAFA"/>
<path d="M239.438 32.5875C237.313 35.3828 233.921 37.2111 230.125 37.2111C223.747 37.2111 218.536 32.0272 218.536 25.5753C218.536 19.1234 223.75 13.9395 230.125 13.9395C236.501 13.9395 241.765 19.1739 241.765 25.5753C241.765 27.1004 241.41 28.4211 241.41 28.4211H224.912C225.923 30.3021 227.897 31.5723 230.125 31.5723C231.896 31.5723 233.516 30.7592 234.579 29.5396L239.438 32.5875ZM224.912 22.7295H235.389C234.376 20.899 232.404 19.5783 230.125 19.5783C227.847 19.5783 225.925 20.899 224.912 22.7295Z" fill="#FAFAFA"/>
<path d="M253.002 20.1895V28.3203C253.002 29.7948 254.217 30.9617 255.685 30.9617H257.001V36.6533H254.672C250.268 36.6533 246.674 33.0449 246.674 28.6236V20.1873H242.776V14.4957H246.674V8.90527H253.002V14.4957H257.001V20.1873H253.002V20.1895Z" fill="#FAFAFA"/>
<path d="M57.2388 18.391C53.8375 12.5193 50.445 6.6431 47.0876 0.747178C46.7439 0.14506 46.3434 -0.0021734 45.7109 2.41172e-05C40.9395 0.0198017 36.1681 0.0110117 31.3967 0.0132092C31.2019 0.0132092 31.0071 0.0351843 30.6504 0.059357C30.8911 0.503254 31.0465 0.799919 31.2129 1.08999C34.5091 6.8255 37.7965 12.5676 41.1233 18.2855C41.502 18.936 41.4779 19.3997 41.1102 20.0325C37.7703 25.7812 34.4631 31.5519 31.1472 37.316C30.5913 38.2851 30.5957 38.2917 31.7316 38.2917C36.3673 38.2917 41.003 38.2741 45.6386 38.3071C46.3806 38.3115 46.7921 38.0697 47.1576 37.4303C50.5041 31.5673 53.8726 25.7153 57.2585 19.8765C57.5758 19.3271 57.5474 18.925 57.241 18.3932L57.2388 18.391Z" fill="#FAFAFA"/>
<path d="M32.6377 19.1494C25.334 19.1494 18.0281 19.1494 10.7244 19.1494C10.4618 19.1494 10.1969 19.1494 9.63226 19.1494C11.1534 20.9008 12.4535 22.4545 13.8258 23.9422C14.3511 24.5113 14.3839 24.9179 13.99 25.5969C10.1729 32.1631 6.39516 38.7512 2.6087 45.335C1.75292 46.8227 0.908077 48.317 0.00195312 49.9058C0.306183 49.941 0.461581 49.9739 0.619168 49.9739C5.52187 49.9783 10.4268 49.9651 15.3295 50.0025C15.9926 50.0069 16.1984 49.6333 16.4545 49.1894C22.0291 39.4896 27.6081 29.7898 33.1849 20.0899C33.719 19.1626 33.7124 19.1516 32.6399 19.1516L32.6377 19.1494Z" fill="#FAFAFA"/>
</g>
<defs>
<clipPath id="clip0_582_23671">
<rect width="257" height="50" fill="white"/>
</clipPath>
</defs>
</svg>
