<svg width="24" height="24" viewBox="0 0 24 24" fill="none" xmlns="http://www.w3.org/2000/svg">
<path d="M12 24C5.37851 24 0 18.6215 0 12C0 5.37851 5.37851 0 12 0C18.6215 0 24 5.37851 24 12C24 18.6215 18.6215 24 12 24ZM12 21.6302C14.3001 21.6302 16.4027 20.8403 18.0523 19.4927L11.3959 12.999C11.1752 12.7783 11.0823 12.5576 11.0823 12.2439V2.40465C6.19167 2.86931 2.35818 6.98161 2.35818 12C2.35818 17.332 6.66796 21.6302 12 21.6302ZM12.9293 10.8267L20.0736 6.73766C18.5169 4.34463 15.9264 2.69506 12.9293 2.40465V10.8267ZM13.696 12.5227L19.4114 18.1568C20.8054 16.4956 21.6418 14.3466 21.6418 12C21.6418 10.7222 21.3863 9.4908 20.9332 8.37561L13.696 12.5227Z" fill="#8E979F"/>
</svg>
