<svg width="24" height="24" viewBox="0 0 24 24" fill="none" xmlns="http://www.w3.org/2000/svg">
<path d="M3.14286 22.125C1.08374 22.125 0 21.0691 0 19.0453V8.91651C0 7.25446 0.729064 6.31588 2.26601 5.84659L14.7192 2.1314C17.202 1.37859 18.8867 2.29761 18.8867 4.7027V5.83682H19.0443C21.1133 5.83682 22.1872 6.90249 22.1872 8.91651V10.7154C23.33 10.8523 24 11.7029 24 12.8272V15.115C24 16.2394 23.33 17.0899 22.1872 17.2268V19.0453C22.1872 21.0593 21.1133 22.125 19.0443 22.125H3.14286ZM8.57143 5.83682H17.0049V4.5365C17.0049 3.71525 16.5025 3.38283 15.6256 3.63703L8.56158 5.5924C8.34483 5.65106 8.37438 5.83682 8.57143 5.83682ZM18.1478 17.2366C16.0197 17.2366 14.601 16.1318 14.601 13.9711C14.601 11.8105 16.0197 10.7057 18.1478 10.7057H20.2463V9.08272C20.2463 8.19303 19.7734 7.75307 18.936 7.75307H3.25123C2.40394 7.75307 1.94089 8.19303 1.94089 9.08272V18.8791C1.94089 19.7688 2.40394 20.199 3.25123 20.199H18.936C19.7734 20.199 20.2463 19.7688 20.2463 18.8791V17.2366H18.1478ZM18.2167 15.731H21.4778C22.1478 15.731 22.4828 15.379 22.4828 14.7435V13.1988C22.4828 12.5633 22.1478 12.2113 21.4778 12.2113H18.2167C16.8867 12.2113 16.1872 12.8566 16.1872 13.9711C16.1872 15.0857 16.8867 15.731 18.2167 15.731ZM18.2069 14.9977C17.6355 14.9977 17.1724 14.5382 17.1724 13.9614C17.1724 13.3943 17.6355 12.9348 18.2069 12.9348C18.7783 12.9348 19.2414 13.3943 19.2414 13.9614C19.2414 14.5382 18.7783 14.9977 18.2069 14.9977Z" fill="#8E979F"/>
</svg>
